<svg id="visual" viewBox="0 0 900 600" width="900" height="600" xmlns="http://www.w3.org/2000/svg" xmlns:xlink="http://www.w3.org/1999/xlink" version="1.1"><g transform="translate(432.76723371313483 312.4155713785696)"><path d="M171.1 -199C213.6 -168.2 234.3 -106.6 223.8 -55.8C213.3 -5 171.6 35 142 77.9C112.4 120.8 94.8 166.6 61.2 187C27.6 207.4 -22.1 202.3 -62.1 182.6C-102.2 162.9 -132.5 128.4 -156.3 89.2C-180.1 50 -197.4 6.1 -190.5 -33.7C-183.6 -73.5 -152.6 -109.1 -116.8 -141.2C-81 -173.2 -40.5 -201.6 11.9 -215.8C64.3 -229.9 128.6 -229.9 171.1 -199" fill="#FFFFFF"></path></g></svg>