<svg id="visual" viewBox="0 0 900 600" width="900" height="600" xmlns="http://www.w3.org/2000/svg" xmlns:xlink="http://www.w3.org/1999/xlink" version="1.1"><g transform="translate(471.35972024972955 299.45687236681704)"><path d="M96.9 -122.4C129.6 -88.1 162.8 -61.3 169.4 -29.1C176 3.1 156 40.8 137.4 85.3C118.8 129.7 101.6 180.9 67.7 198.8C33.7 216.8 -17 201.4 -74.4 187.7C-131.7 174 -195.8 162 -210.1 126.5C-224.4 91 -189 31.9 -167.4 -18.8C-145.7 -69.6 -137.8 -112.2 -112.2 -147.7C-86.6 -183.2 -43.3 -211.6 -5.6 -204.9C32.1 -198.3 64.3 -156.6 96.9 -122.4" fill="#FFFFFF"></path></g></svg>