<?xml version="1.0" encoding="utf-8"?>
<!-- Generator: Adobe Illustrator 24.3.0, SVG Export Plug-In . SVG Version: 6.00 Build 0)  -->
<svg version="1.1" xmlns="http://www.w3.org/2000/svg" xmlns:xlink="http://www.w3.org/1999/xlink" x="0px" y="0px"
	 viewBox="0 0 1920 1080" style="enable-background:new 0 0 1920 1080;" xml:space="preserve">
<style type="text/css">
	.st0{display:none;}
	.st1{display:inline;fill:#FAFBFC;}
	.st2{display:inline;}
	.st3{fill:#FFFFFF;}
	.st4{fill:#E6E6E6;}
	.st5{display:inline;fill:none;stroke:#E4DFDE;stroke-width:4;stroke-miterlimit:10;}
	.st6{display:inline;fill:none;stroke:#DFEAF0;stroke-width:4;stroke-miterlimit:10;}
	.st7{fill:none;stroke:#ECEDEE;stroke-width:4;stroke-miterlimit:10;}
	.st8{display:inline;fill:none;stroke:#ECEDEE;stroke-width:4;stroke-miterlimit:10;}
	.st9{fill:none;stroke:#DFEAF0;stroke-width:4;stroke-miterlimit:10;}
</style>
<g id="Layer_2" class="st0">
	<rect class="st1" width="1920" height="1080"/>
</g>
<g id="Layer_1" class="st0">
	<g class="st2">
		<path class="st3" d="M563,812.5c-5.79,0-10.5-4.71-10.5-10.5V323c0-5.79,4.71-10.5,10.5-10.5h878c5.79,0,10.5,4.71,10.5,10.5v479
			c0,5.79-4.71,10.5-10.5,10.5H563z"/>
		<path class="st4" d="M1441,313c5.51,0,10,4.49,10,10v479c0,5.51-4.49,10-10,10H563c-5.51,0-10-4.49-10-10V323
			c0-5.51,4.49-10,10-10H1441 M1441,312H563c-6.08,0-11,4.92-11,11v479c0,6.08,4.92,11,11,11h878c6.08,0,11-4.92,11-11V323
			C1452,316.92,1447.08,312,1441,312L1441,312z"/>
	</g>
</g>
<g id="Layer_6" class="st0">
	<polygon class="st5" points="1577.91,448.18 1594.56,477.02 1611.21,448.18 	"/>
	<path class="st5" d="M248.05,439.53l26.64,15.38L248.05,439.53z"/>
	<path class="st6" d="M1594.7,762.5l26.64,15.38L1594.7,762.5z"/>
	<path class="st5" d="M469.25,783.26l15.38-26.64L469.25,783.26z"/>
</g>
<g id="Layer_5" class="st0">
	<g class="st2">
		<path class="st7" d="M344.39,599.24h48.06H344.39z"/>
		<path class="st7" d="M351.42,616.23l33.98-33.98L351.42,616.23z"/>
		<path class="st7" d="M368.42,623.27v-48.06V623.27z"/>
		<path class="st7" d="M351.42,582.25l33.98,33.98L351.42,582.25z"/>
	</g>
	<path class="st8" d="M1713.67,599.18l21.75-21.75L1713.67,599.18z"/>
	<path class="st8" d="M1499.32,291.59l21.75-21.75L1499.32,291.59z"/>
	<path class="st8" d="M137.23,231.75L158.98,210L137.23,231.75z"/>
</g>
<g id="Layer_4">
	<polygon class="st9" points="430.79,252.25 439.41,284.41 462.95,260.87 	"/>
	<polygon class="st9" points="1758.52,899.93 1734.98,923.48 1767.14,932.1 	"/>
	<polygon class="st9" points="208.67,841.23 179.83,857.88 208.67,874.53 	"/>
	<g>
		<path class="st9" d="M1732.3,251.91h61.52H1732.3z"/>
		<path class="st9" d="M1741.31,273.66l43.5-43.5L1741.31,273.66z"/>
		<path class="st9" d="M1763.06,282.66v-61.52V282.66z"/>
		<path class="st9" d="M1741.31,230.16l43.5,43.5L1741.31,230.16z"/>
	</g>
</g>
</svg>
